<svg version="1.1" id="Layer_1" xmlns="http://www.w3.org/2000/svg" xmlns:xlink="http://www.w3.org/1999/xlink" x="0px" y="0px"
	 width="100%" viewBox="0 0 1024 1024" enable-background="new 0 0 1024 1024" xml:space="preserve">
<path fill="#000000" opacity="1.000000" stroke="none" 
	d="
M406.536621,526.450562 
	C417.009216,508.078369 427.307922,490.020233 437.807953,471.609039 
	C432.266144,468.617035 426.625916,467.927826 421.296753,466.371887 
	C406.122864,461.941681 390.935577,457.548676 375.679535,453.414185 
	C371.233459,452.209259 370.016724,450.369354 371.942230,446.063477 
	C373.335968,442.946838 373.269379,439.416199 371.673096,436.353210 
	C369.397705,431.987061 371.385620,430.732697 375.340637,429.625061 
	C394.892487,424.149750 414.379852,418.443939 433.887665,412.811584 
	C434.819550,412.542511 435.730072,412.199402 436.928772,411.797485 
	C436.261963,408.460938 434.336945,405.941742 432.822266,403.268555 
	C423.954773,387.618652 415.100037,371.960632 406.076233,356.400909 
	C404.183014,353.136475 404.444000,351.520081 408.190918,350.179169 
	C413.901398,348.135620 417.275482,343.660889 418.795471,338.108948 
	C421.086792,337.342682 422.333252,338.730774 423.708862,339.510315 
	C440.229706,348.872375 456.721588,358.285461 473.233551,367.663208 
	C478.326569,370.555786 478.564178,370.483032 480.212402,364.741669 
	C485.447052,346.507324 490.619659,328.255188 495.830170,310.013916 
	C496.372864,308.114044 497.008484,306.240662 497.810974,303.686768 
	C504.669830,306.560760 511.402191,307.743347 518.571960,303.051208 
	C525.146057,325.967743 531.448792,347.938080 538.007874,370.802307 
	C557.911743,359.564667 577.347534,348.591309 597.613586,337.149200 
	C599.343323,345.622314 604.590393,349.845398 612.711731,352.189240 
	C601.386902,372.265137 590.397339,391.746613 579.056335,411.851196 
	C587.240051,414.221832 594.982788,416.481079 602.735168,418.706635 
	C614.729919,422.150024 626.739685,425.541199 638.726501,429.011749 
	C645.805115,431.061157 645.861694,431.131927 643.802673,437.972717 
	C642.409973,442.599426 644.447998,446.769989 645.713013,451.659485 
	C623.982361,459.232147 601.814514,464.364532 579.184326,471.409698 
	C590.451538,491.334717 601.378845,510.658722 612.680847,530.645264 
	C605.133606,533.290771 599.873840,537.774048 597.416199,545.902527 
	C577.533325,534.498474 558.284241,523.457947 538.235779,511.958984 
	C531.623840,535.195740 525.286499,557.467529 518.756958,580.414795 
	C512.116760,576.700867 506.160400,576.317444 499.912567,579.191650 
	C497.063141,580.502563 496.831451,577.407166 496.327972,575.676636 
	C492.748840,563.374939 489.263245,551.045898 485.774353,538.718140 
	C483.825958,531.833435 481.919434,524.936768 480.010651,518.040955 
	C478.494049,512.561890 478.088501,512.304077 472.931152,515.265198 
	C457.331024,524.222290 441.789581,533.281738 426.219238,542.290771 
	C424.634308,543.207886 423.028137,544.093018 421.395691,544.921753 
	C420.004089,545.628296 418.587708,545.475586 418.097870,543.890503 
	C416.034424,537.213379 411.241730,533.492737 405.118744,531.942444 
	C404.243652,529.435303 405.752808,528.241577 406.536621,526.450562 
M569.476379,454.739502 
	C570.755676,457.646271 573.105774,458.259613 576.036377,458.042572 
	C584.527405,457.413635 591.753052,449.704559 591.557617,441.350769 
	C591.352966,432.601868 583.262817,424.955750 574.472107,425.075409 
	C570.858093,425.124603 569.173828,426.799713 568.947510,430.378845 
	C579.757446,430.268768 584.433044,432.767944 585.833557,439.207794 
	C586.863770,443.944855 584.838135,447.998444 580.010071,450.168213 
	C580.010071,446.729248 579.971191,443.471893 580.022156,440.215942 
	C580.064392,437.511536 579.372375,435.358551 576.609802,434.193359 
	C570.676147,431.690735 566.845337,434.449615 567.094971,441.040710 
	C567.264709,445.520294 570.645813,449.466522 569.476379,454.739502 
M493.754669,366.363373 
	C493.016083,368.208527 492.031860,369.996429 491.585663,371.909821 
	C490.325684,377.313202 491.581482,379.151093 497.184082,380.677429 
	C496.220612,369.500031 500.027374,363.748718 508.428986,363.688446 
	C517.067078,363.626495 520.445679,368.959686 519.420288,381.038727 
	C524.752319,379.151306 525.298584,378.398254 524.995239,373.354156 
	C524.588562,366.591156 520.275146,361.009949 513.835266,358.914093 
	C506.138611,356.409180 499.604126,358.683105 493.754669,366.363373 
M492.341217,504.223022 
	C491.495483,504.924744 491.353760,505.896210 491.274231,506.910767 
	C490.525879,516.455566 498.403320,525.161621 508.107086,525.503784 
	C517.098633,525.820801 525.394348,517.754944 525.677734,508.558685 
	C525.806763,504.369537 523.462158,502.825500 519.742920,502.126709 
	C520.851868,513.902039 517.057861,519.965515 508.655212,520.257874 
	C505.293732,520.374878 502.571259,519.090393 500.145111,516.805115 
	C495.671631,512.591553 496.553680,507.280945 497.259918,502.027710 
	C495.246552,501.888458 494.202820,503.127838 492.341217,504.223022 
M444.903381,453.244354 
	C444.403687,453.251282 443.903564,453.274841 443.404327,453.262634 
	C435.263824,453.063599 430.498779,448.518066 430.673187,441.123444 
	C430.841766,433.975128 436.240540,429.470703 444.204498,429.781677 
	C445.266724,429.823181 446.507507,430.619537 447.414948,429.217987 
	C447.189117,426.398743 445.519653,425.347687 442.813416,425.121643 
	C434.324219,424.412628 426.929382,430.281097 425.474487,439.023041 
	C423.761536,449.315369 433.363281,459.429626 443.396118,457.949982 
	C445.180054,457.686890 446.662170,457.099152 447.232819,455.278412 
	C447.629272,454.013428 446.774841,453.491028 444.903381,453.244354 
z"/>
<path fill="#000000" opacity="1.000000" stroke="none" 
	d="
M410.476196,473.411133 
	C414.766235,474.803772 418.952515,475.292267 423.158752,477.926117 
	C411.970276,497.441559 400.865601,516.810852 389.073853,537.378540 
	C370.079437,513.891235 360.216736,488.088715 356.067352,458.362549 
	C375.034668,462.671906 392.409454,468.570618 410.476196,473.411133 
z"/>
<path fill="#000000" opacity="1.000000" stroke="none" 
	d="
M560.413635,535.521606 
	C574.798462,543.831726 588.861877,551.966919 602.649536,559.942627 
	C602.566833,562.674316 600.810913,563.320679 599.560547,564.289917 
	C579.255310,580.030029 556.163513,589.146362 530.892395,593.012268 
	C528.110779,593.437805 525.132141,593.781433 526.416016,589.207581 
	C531.979675,569.385559 537.514709,549.555420 543.105103,529.740967 
	C543.357544,528.846375 544.047302,528.075195 544.889832,526.639038 
	C550.084473,529.614441 555.088318,532.480530 560.413635,535.521606 
z"/>
<path fill="#000000" opacity="1.000000" stroke="none" 
	d="
M416.100037,323.884155 
	C412.122498,321.144287 414.709045,319.620392 416.754517,318.141724 
	C432.115265,307.037231 448.725433,298.487061 467.114838,293.579742 
	C474.778168,291.534729 482.467407,289.704163 490.692078,289.457703 
	C491.069397,294.095306 489.030182,297.669220 488.009644,301.397705 
	C483.537903,317.734589 478.801300,333.999084 474.144653,350.285217 
	C472.597229,355.697174 471.978699,355.997162 467.018188,353.161560 
	C450.127380,343.506165 433.273621,333.785858 416.100037,323.884155 
z"/>
<path fill="#000000" opacity="1.000000" stroke="none" 
	d="
M602.548889,493.390961 
	C599.545593,488.041962 596.708923,483.020721 593.878418,478.010284 
	C596.947998,475.295013 600.413757,475.161469 603.526367,474.247253 
	C620.425110,469.283783 637.357849,464.435150 654.294495,459.601898 
	C659.854614,458.015106 660.276794,458.452301 659.443665,464.244080 
	C655.843445,489.271790 646.345581,511.870148 631.400085,532.213074 
	C630.435120,533.526672 629.580139,535.016541 626.947937,536.084412 
	C618.912659,522.036194 610.814087,507.877472 602.548889,493.390961 
z"/>
<path fill="#000000" opacity="1.000000" stroke="none" 
	d="
M487.605988,580.513611 
	C488.688568,584.729858 490.443298,588.387939 490.373230,593.586792 
	C461.614624,590.151550 436.242767,579.812683 412.664886,561.192505 
	C432.857086,549.432495 452.124023,538.211365 472.517334,526.334229 
	C477.672607,544.866760 482.577057,562.497742 487.605988,580.513611 
z"/>
<path fill="#000000" opacity="1.000000" stroke="none" 
	d="
M378.588348,418.732330 
	C371.197815,420.800873 364.191772,422.738373 356.151520,424.961853 
	C359.372589,395.097321 370.628448,369.869263 389.404419,346.178558 
	C400.739471,366.261353 411.546936,385.409393 422.955048,405.621674 
	C407.776978,410.100861 393.374908,414.351074 378.588348,418.732330 
z"/>
<path fill="#000000" opacity="1.000000" stroke="none" 
	d="
M584.271606,308.626526 
	C590.788696,312.637512 596.847046,316.657837 602.570984,321.466461 
	C600.651489,324.748413 597.473755,325.718964 594.864563,327.243042 
	C579.650269,336.130371 564.292664,344.772400 549.079407,353.661560 
	C545.467468,355.772003 543.752625,355.714996 542.519348,351.147003 
	C537.498413,332.550262 532.131836,314.046936 526.926575,295.499695 
	C526.447632,293.793152 526.208801,292.019257 525.705078,289.513245 
	C547.044189,291.437195 566.024475,298.278198 584.271606,308.626526 
z"/>
<path fill="#000000" opacity="1.000000" stroke="none" 
	d="
M614.561646,368.591858 
	C618.645447,361.336578 622.554382,354.403809 627.115234,346.314636 
	C645.964294,369.427185 656.289734,395.066101 659.740295,423.564209 
	C657.727295,424.815613 656.329285,424.103973 654.917480,423.690430 
	C636.416565,418.270996 617.908325,412.876587 599.418518,407.419556 
	C593.506775,405.674774 593.430786,405.309906 596.463135,400.058136 
	C602.452271,389.685303 608.413757,379.296509 614.561646,368.591858 
z"/>
<path fill="#000000" opacity="1.000000" stroke="none" 
	d="
M734.302734,694.624023 
	C725.460632,698.336182 717.415466,697.549438 709.866943,692.079163 
	C708.590332,693.291138 707.603027,694.708252 706.246094,695.434143 
	C700.135925,698.702393 694.976196,695.602478 694.975525,688.736816 
	C694.973572,670.433228 695.001282,652.129639 695.050476,633.826111 
	C695.069336,626.824402 700.565430,623.599792 706.852051,626.753845 
	C709.268555,627.966187 709.313110,630.048401 709.367432,632.247986 
	C709.501404,637.675964 709.009827,643.155945 710.477783,648.545593 
	C726.642639,641.527283 739.921631,645.195129 746.240234,658.527527 
	C751.997925,670.676086 748.620972,688.249573 734.302734,694.624023 
M709.388489,671.334167 
	C709.637085,672.468933 709.824707,673.621216 710.144348,674.735535 
	C711.842285,680.654846 715.440857,683.625244 721.122559,683.847839 
	C727.239624,684.087524 731.474854,681.292969 733.436218,675.722839 
	C735.380676,670.200623 733.831787,663.400085 729.887573,660.142273 
	C725.729004,656.707458 719.427612,656.327637 714.968384,659.333679 
	C711.015747,661.998108 709.854187,666.112488 709.388489,671.334167 
z"/>
<path fill="#000000" opacity="1.000000" stroke="none" 
	d="
M602.894775,678.082153 
	C602.889099,676.098022 602.834778,674.596619 602.888855,673.099121 
	C602.990173,670.292480 601.593872,669.299805 598.898560,669.335876 
	C592.234375,669.425110 585.566772,669.449280 578.903503,669.333130 
	C575.536377,669.274536 574.080750,670.509583 574.222778,674.027832 
	C574.431030,679.184937 574.344482,684.358337 574.249207,689.522278 
	C574.149719,694.909546 572.368713,696.330322 566.155334,696.264832 
	C560.192871,696.201965 559.733765,694.932312 558.683594,689.447754 
	C556.660095,678.880310 562.960205,673.236511 569.875854,667.473389 
	C574.807251,663.363953 574.669495,663.195740 570.165039,658.862610 
	C568.964233,657.707520 567.897278,656.339600 566.522156,655.451538 
	C559.255920,650.759460 558.130676,643.819336 558.711975,635.922241 
	C559.040405,631.459229 561.047058,629.737366 565.308228,629.688354 
	C571.254944,629.620056 573.819458,630.985718 574.097595,635.417053 
	C574.420593,640.563904 574.392456,645.748108 574.214600,650.905701 
	C574.091370,654.477051 575.227905,656.098999 579.028015,655.964294 
	C585.519775,655.734070 592.024841,655.738586 598.521179,655.843140 
	C601.793518,655.895752 602.966553,654.497742 602.889160,651.348816 
	C602.766418,646.352966 602.754517,641.348328 602.904785,636.353638 
	C603.055847,631.330872 605.007812,629.827637 610.831543,629.836670 
	C616.474487,629.845459 618.166138,631.152954 618.190430,636.198792 
	C618.276733,654.195007 618.192383,672.191956 618.270325,690.188232 
	C618.292419,695.275146 615.247803,696.234680 611.082336,696.231140 
	C604.937378,696.225952 603.123779,694.995972 602.926270,690.063293 
	C602.773010,686.236755 602.895264,682.399292 602.894775,678.082153 
z"/>
<path fill="#000000" opacity="1.000000" stroke="none" 
	d="
M281.315796,677.097412 
	C284.608063,673.472900 287.609711,670.126038 290.778687,666.945923 
	C292.893372,664.823853 292.754883,662.949402 290.747467,660.955750 
	C290.157471,660.369934 289.709320,659.587891 289.031433,659.151978 
	C280.251831,653.505249 280.009888,644.873169 280.642670,635.818176 
	C280.888611,632.299072 282.465820,630.673096 285.933594,630.673096 
	C298.917084,630.673218 311.901184,630.714417 324.883789,630.599487 
	C329.511932,630.558533 330.394806,633.209045 330.394104,637.041077 
	C330.393402,641.037842 328.973206,643.382507 324.596191,643.337097 
	C316.940033,643.257629 309.266937,643.608215 301.630585,643.210144 
	C295.746033,642.903320 296.300781,646.516479 296.216858,650.301270 
	C296.131531,654.148804 296.192017,657.181091 301.595245,656.799805 
	C307.723450,656.367249 313.908051,656.803528 320.064117,656.672791 
	C324.859558,656.570984 326.022034,659.552185 326.103882,663.422791 
	C326.189087,667.452515 324.338898,669.514099 320.010925,669.381897 
	C313.858063,669.193909 307.689941,669.500122 301.537567,669.304321 
	C297.739594,669.183411 295.824921,670.449280 296.233551,674.436523 
	C296.317932,675.259888 296.331268,676.111572 296.223877,676.930115 
	C295.637878,681.396484 297.336212,683.201782 302.037262,683.015808 
	C309.681244,682.713318 317.350616,682.849426 325.003296,683.039551 
	C330.059631,683.165161 332.179596,685.839294 331.729370,690.802979 
	C331.429382,694.110291 329.786102,696.108521 326.352600,696.123901 
	C312.537598,696.185913 298.722321,696.211182 284.907288,696.183533 
	C282.185364,696.178101 280.478149,694.831909 280.572266,691.878723 
	C280.725555,687.067200 280.919525,682.256897 281.315796,677.097412 
z"/>
<path fill="#000000" opacity="1.000000" stroke="none" 
	d="
M413.273438,682.959534 
	C419.491028,685.892029 425.295746,685.445618 430.751648,682.160461 
	C433.695526,680.387817 436.025757,680.837769 438.456085,682.841919 
	C441.855774,685.645386 442.222137,688.394470 438.786438,691.106262 
	C429.897583,698.122192 419.859833,698.712097 409.521790,695.098022 
	C399.888824,691.730408 394.785156,684.333801 393.785004,674.491028 
	C391.750122,654.465759 408.240631,640.689453 427.635376,645.869263 
	C437.939911,648.621277 445.949341,659.826904 445.253937,670.393921 
	C444.971222,674.690613 442.326752,676.067932 438.551300,676.075073 
	C430.732422,676.089844 422.913422,676.016052 415.094452,676.013611 
	C413.146637,676.013000 411.139465,675.727417 409.258087,676.641785 
	C408.864899,679.820251 410.990692,681.238892 413.273438,682.959534 
M429.187378,666.301941 
	C432.211182,664.336548 429.805511,662.377563 428.791443,661.011230 
	C426.145660,657.446106 422.355469,655.745056 417.914917,656.812012 
	C413.232422,657.937012 409.515778,660.355286 408.540894,666.390442 
	C415.431244,666.827271 421.962036,666.800964 429.187378,666.301941 
z"/>
<path fill="#000000" opacity="1.000000" stroke="none" 
	d="
M637.232483,690.706970 
	C633.033508,685.453918 632.186218,679.518921 632.042542,673.479736 
	C631.872192,666.320496 631.964722,659.152527 632.066284,651.990112 
	C632.146423,646.343445 633.454895,645.194946 639.391724,645.100464 
	C645.010193,645.010986 646.665649,646.344727 646.820435,651.975647 
	C647.016968,659.125793 646.563782,666.300110 646.919739,673.437622 
	C647.296204,680.985413 650.154846,683.789429 656.300354,683.743591 
	C662.423767,683.697937 666.572998,679.541443 666.774353,672.821716 
	C666.978760,665.997009 666.791016,659.161438 666.906372,652.332825 
	C667.000366,646.768494 668.658752,645.252930 674.199768,645.274597 
	C680.211182,645.298096 681.249146,646.280151 681.341064,652.078186 
	C681.525879,663.728577 681.785950,675.378723 681.826477,687.029663 
	C681.837280,690.134583 683.271790,694.309082 678.830017,695.562988 
	C674.463501,696.795715 669.839661,697.244812 666.930847,692.062500 
	C656.795288,698.446899 646.929810,699.179260 637.232483,690.706970 
z"/>
<path fill="#000000" opacity="1.000000" stroke="none" 
	d="
M468.377625,694.081238 
	C464.981384,697.322876 461.231354,696.394836 457.685608,695.885864 
	C455.337799,695.548706 454.746155,693.459595 454.743805,691.292297 
	C454.729095,677.815857 454.716736,664.339478 454.698700,650.863037 
	C454.696167,648.955627 454.876770,646.768250 456.908417,646.279114 
	C460.415649,645.434631 464.127289,644.731323 467.476532,646.940796 
	C468.251740,647.452271 468.682709,648.485474 469.346161,649.378418 
	C476.462189,645.132263 483.525024,643.342773 491.208344,645.708191 
	C499.084076,648.132812 503.481812,653.788635 504.382477,662.051941 
	C505.396057,671.351013 504.818359,680.667969 505.095306,689.972717 
	C505.237427,694.748474 502.748993,696.384644 498.252228,696.326111 
	C491.936432,696.243896 490.453644,695.362793 490.210052,690.176453 
	C490.046600,686.696411 490.204651,683.192810 490.377808,679.707581 
	C490.584381,675.549805 490.808624,671.409424 490.133057,667.267029 
	C489.061249,660.695007 485.707458,657.318726 480.311249,657.482666 
	C474.355408,657.663574 469.667999,662.075378 469.387604,668.359863 
	C469.098694,674.835938 469.319427,681.334045 469.274261,687.822266 
	C469.260498,689.801575 469.548676,691.828857 468.377625,694.081238 
z"/>
<path fill="#000000" opacity="1.000000" stroke="none" 
	d="
M377.904968,679.811646 
	C376.518127,683.070435 375.274384,685.975769 374.056305,688.891785 
	C371.115967,695.930542 370.449341,696.183228 362.979584,696.353088 
	C358.524658,696.454285 355.840363,694.811890 354.167236,690.673645 
	C349.242798,678.493835 344.019745,666.434204 339.151947,654.232422 
	C338.122803,651.652710 335.186768,648.282166 339.670837,646.065796 
	C343.937195,643.956909 350.721771,645.893921 352.286072,649.612366 
	C355.250824,656.659973 357.880219,663.848083 360.787079,670.921021 
	C361.632233,672.977356 361.828491,675.457703 364.479187,677.304871 
	C367.919525,668.808716 371.268738,660.551086 374.607086,652.289001 
	C377.241333,645.769409 378.544189,644.957825 385.481049,645.567627 
	C390.075775,645.971619 391.093597,647.346680 389.365021,651.745728 
	C385.715973,661.031738 381.841675,670.229248 377.904968,679.811646 
z"/>
<path fill="#000000" opacity="1.000000" stroke="none" 
	d="
M539.965332,645.933228 
	C544.297424,645.908020 547.917053,646.263123 548.221252,651.396179 
	C548.477417,655.718079 546.246033,658.087646 540.919617,657.994629 
	C536.429077,657.916199 534.745117,659.403015 534.747009,664.003906 
	C534.749023,668.812622 534.075806,673.648926 534.558472,678.456238 
	C535.047729,683.329163 537.437927,685.205017 541.910583,683.800049 
	C545.935669,682.535645 547.412231,684.574341 548.658386,687.596252 
	C550.024719,690.909485 549.124878,693.373779 545.957031,695.112427 
	C534.342529,701.486755 520.404663,693.829834 519.861145,680.637817 
	C519.621460,674.820496 519.722839,668.985962 519.787720,663.160583 
	C519.818420,660.404968 519.561646,658.350586 515.995361,658.072510 
	C512.841248,657.826538 511.642456,655.441406 511.600037,652.395935 
	C511.558411,649.409912 512.438660,646.961243 515.691956,646.505981 
	C519.453796,645.979492 519.860474,643.669434 519.921387,640.498291 
	C520.046875,633.964905 526.598633,630.682129 532.250854,634.108521 
	C534.738770,635.616699 534.501343,638.081482 534.315308,640.344971 
	C533.991821,644.280457 535.213257,646.471252 539.965332,645.933228 
z"/>
<path fill="#000000" opacity="1.000000" stroke="none" 
	d="
M518.494873,587.849365 
	C521.115967,593.026611 520.582336,597.586121 517.065063,601.625366 
	C513.604919,605.598999 508.917084,606.177185 504.218140,604.904968 
	C499.423370,603.606934 496.962708,599.871338 496.220795,595.017639 
	C495.473602,590.129395 498.402649,585.028198 503.141785,582.946411 
	C509.241577,580.267029 513.460205,581.536255 518.494873,587.849365 
z"/>
<path fill="#000000" opacity="1.000000" stroke="none" 
	d="
M343.936707,441.173584 
	C345.892395,433.651550 349.782104,430.024048 355.671753,429.866852 
	C360.465332,429.738953 365.175751,432.930969 366.894104,437.471680 
	C369.358002,443.982513 366.380981,450.458008 359.880371,452.727661 
	C353.417908,454.984009 346.805298,451.858582 344.649597,445.454803 
	C344.232941,444.217224 344.138336,442.871185 343.936707,441.173584 
z"/>
<path fill="#000000" opacity="1.000000" stroke="none" 
	d="
M671.864136,443.540375 
	C669.414612,450.713531 664.046448,454.281189 657.870789,453.169159 
	C652.274353,452.161469 648.261658,447.244232 648.292969,441.432556 
	C648.326843,435.153198 653.326111,430.065094 659.682190,429.841125 
	C666.758301,429.591797 671.742065,434.996033 671.864136,443.540375 
z"/>
<path fill="#000000" opacity="1.000000" stroke="none" 
	d="
M390.096832,336.568268 
	C390.356659,328.957977 394.328705,324.043854 400.603546,323.063293 
	C405.453918,322.305359 410.957550,325.670166 412.885071,330.571991 
	C415.119843,336.255096 412.954620,342.501587 407.828827,345.159027 
	C402.230896,348.061157 395.136017,346.289429 391.921021,341.077362 
	C391.148499,339.824982 390.757721,338.337097 390.096832,336.568268 
z"/>
<path fill="#000000" opacity="1.000000" stroke="none" 
	d="
M418.365540,735.346802 
	C415.535400,727.680115 412.940125,720.308777 411.886627,712.439209 
	C418.030334,716.146179 416.650574,723.705200 420.589569,728.881653 
	C422.772461,725.078064 423.249512,721.065491 424.549225,717.347778 
	C425.223480,715.419067 424.926300,712.385864 427.737854,712.404175 
	C430.494720,712.422058 430.310883,715.513306 431.023834,717.403625 
	C432.413269,721.087708 433.526031,724.876221 434.992188,729.350220 
	C439.079529,723.659058 437.929321,716.293579 442.767120,711.886841 
	C444.782410,713.255798 444.460876,714.466614 444.106750,715.548523 
	C442.140198,721.557129 440.138123,727.554565 438.081818,733.533020 
	C437.598083,734.939453 437.007080,736.448914 435.050537,736.300659 
	C433.394196,736.175293 432.979431,734.860901 432.548859,733.572693 
	C431.094238,729.221252 429.629944,724.872986 427.798248,719.418396 
	C426.037384,724.853516 424.665436,729.230835 423.193115,733.574097 
	C422.430450,735.823914 421.389221,737.788025 418.365540,735.346802 
z"/>
<path fill="#000000" opacity="1.000000" stroke="none" 
	d="
M275.748322,676.036621 
	C274.151978,677.801025 272.433441,678.246216 270.516846,678.167542 
	C267.202942,678.031433 265.913269,676.537964 267.282288,673.303101 
	C267.540497,672.692871 267.796478,672.015808 268.247711,671.563171 
	C273.297638,666.497864 272.965912,661.587097 268.194366,656.474731 
	C266.902405,655.090515 265.656219,652.834717 267.696289,651.164917 
	C269.450348,649.729309 272.163239,649.504028 273.800781,650.986755 
	C277.732086,654.546326 281.375397,658.451050 284.885864,662.435913 
	C286.428589,664.187195 284.962646,665.786255 283.662292,667.202515 
	C281.074677,670.020874 278.562897,672.908752 275.748322,676.036621 
z"/>
<path fill="#000000" opacity="1.000000" stroke="none" 
	d="
M591.867615,721.588989 
	C595.437744,722.424011 599.119263,720.940979 602.021423,723.435669 
	C601.098511,726.258057 599.078064,725.892822 597.337341,726.001038 
	C594.264038,726.192139 590.110046,725.434204 590.634583,730.253662 
	C591.095215,734.485596 595.115967,732.099915 597.528748,732.705750 
	C599.691345,733.248718 602.543213,731.693176 604.436646,735.615479 
	C598.860107,736.774963 593.691223,736.438049 588.576477,735.930786 
	C586.727295,735.747437 586.826660,733.735779 586.817688,732.258972 
	C586.785278,726.937622 586.797913,721.615845 586.833191,716.294434 
	C586.843140,714.791077 586.837158,712.894165 588.551575,712.504883 
	C593.650391,711.347229 598.742981,711.478760 604.551758,712.816223 
	C601.334106,717.390198 597.549683,715.737854 594.382019,716.019470 
	C590.312195,716.381348 589.225464,717.906799 591.867615,721.588989 
z"/>
<path fill="#000000" opacity="1.000000" stroke="none" 
	d="
M502.281494,734.833862 
	C498.420929,730.925720 497.824890,726.790710 500.212006,722.309631 
	C502.378448,718.242798 505.001556,717.412109 512.810669,718.064636 
	C514.197266,716.938721 513.537415,715.322266 513.740967,713.916077 
	C513.933044,712.588745 513.966492,711.188904 517.023071,711.185425 
	C517.748840,719.316895 517.257446,727.493164 517.131897,736.049072 
	C511.853333,735.439941 507.091064,738.206604 502.281494,734.833862 
M513.676208,727.379456 
	C512.793640,721.833252 509.088531,719.576111 505.372742,722.423950 
	C503.290527,724.019836 502.054993,726.119507 503.000305,728.927856 
	C503.753540,731.165649 505.103668,732.645569 507.615387,732.780334 
	C510.964325,732.959839 512.928040,731.373291 513.676208,727.379456 
z"/>
<path fill="#000000" opacity="1.000000" stroke="none" 
	d="
M644.918823,732.134338 
	C644.268066,736.020447 641.605957,737.179688 636.365051,736.195435 
	C632.153931,735.404541 628.855225,731.207764 628.956055,726.769470 
	C629.052979,722.508179 632.365295,718.398132 636.220764,717.755249 
	C641.052063,716.949768 645.100159,719.156067 646.688843,723.424133 
	C647.890320,726.651733 647.085205,728.525269 643.392395,728.885681 
	C640.438293,729.174133 637.411011,728.437134 634.206909,729.535095 
	C634.929443,732.909119 637.420349,732.793701 639.860657,732.686951 
	C641.486511,732.615784 642.894043,731.140991 644.918823,732.134338 
M638.475037,721.185974 
	C636.406006,721.337158 634.564270,721.773376 634.212402,724.589783 
	C636.988831,725.040588 639.513306,725.580444 641.989258,724.323914 
	C642.103577,722.057739 640.653198,721.641724 638.475037,721.185974 
z"/>
<path fill="#000000" opacity="1.000000" stroke="none" 
	d="
M342.900177,736.367188 
	C337.428619,733.862183 335.051117,729.847778 336.057159,725.363831 
	C337.078094,720.813232 340.813873,717.703613 345.223206,717.734192 
	C350.074158,717.767822 353.882355,720.910645 354.738800,725.587097 
	C356.003113,732.490845 350.805878,737.421753 342.900177,736.367188 
M348.388947,732.072205 
	C351.396271,729.473999 351.709076,726.369385 349.503143,723.277649 
	C347.838013,720.943909 345.338989,720.734314 342.860382,722.190674 
	C339.946381,723.902771 339.471161,726.639099 340.403412,729.535889 
	C341.597656,733.246765 344.532257,733.313049 348.388947,732.072205 
z"/>
<path fill="#000000" opacity="1.000000" stroke="none" 
	d="
M546.527222,736.442993 
	C539.692200,736.209961 536.359375,733.839844 535.492859,728.909119 
	C534.623413,723.961792 537.518982,719.032593 541.953796,717.910156 
	C547.267883,716.565247 552.661987,719.362610 554.009033,724.161987 
	C555.556824,729.676147 552.749390,734.510010 546.527222,736.442993 
M540.706482,723.277649 
	C538.699402,725.860291 538.702698,728.512268 540.712463,731.020325 
	C542.239014,732.925293 544.434021,733.120667 546.644775,732.545837 
	C549.078003,731.913147 549.977051,729.888794 550.366211,727.693665 
	C550.745728,725.552124 549.793091,723.734680 548.148926,722.443848 
	C545.831055,720.624084 543.485596,721.204041 540.706482,723.277649 
z"/>
<path fill="#000000" opacity="1.000000" stroke="none" 
	d="
M451.203369,720.036987 
	C455.516663,716.899414 459.669617,716.802551 463.449982,719.902893 
	C466.627045,722.508362 467.898254,726.041199 466.460236,730.192810 
	C464.538177,735.741638 459.076385,738.113098 453.492554,735.805359 
	C448.976379,733.938782 446.745270,727.851868 448.934052,723.143250 
	C449.414062,722.110657 450.237823,721.237854 451.203369,720.036987 
M462.843262,727.412109 
	C462.820160,723.713196 461.186737,721.290405 457.288116,721.382874 
	C454.256165,721.454773 452.462494,723.416504 452.190338,726.422363 
	C451.934448,729.248169 452.633362,731.899414 455.816589,732.572693 
	C459.342987,733.318604 461.999664,732.101196 462.843262,727.412109 
z"/>
<path fill="#000000" opacity="1.000000" stroke="none" 
	d="
M373.980652,735.919678 
	C369.717773,736.582581 365.330566,738.332764 362.602295,734.181274 
	C359.510162,729.476074 360.312622,724.043518 361.551514,718.811951 
	C361.619751,718.523743 362.340271,718.390015 363.021332,718.054138 
	C365.293793,720.877502 364.127594,724.124268 364.264313,727.086304 
	C364.410431,730.251465 364.984070,732.869812 368.811676,732.854248 
	C372.397980,732.839722 373.507172,730.481995 373.832123,727.269714 
	C374.143127,724.195435 372.872772,720.714172 376.308044,717.057678 
	C378.956390,722.874329 377.659058,728.127747 377.857849,733.174866 
	C377.876892,733.658508 377.714325,734.162842 377.568787,734.636963 
	C377.041931,736.352905 375.761414,736.323608 373.980652,735.919678 
z"/>
<path fill="#000000" opacity="1.000000" stroke="none" 
	d="
M321.678589,728.676758 
	C319.745300,722.779358 315.087250,718.735229 313.076447,712.085632 
	C319.643402,713.503052 319.851654,719.888367 323.786346,722.920837 
	C327.954895,720.320923 327.864746,713.569397 333.915924,712.414062 
	C331.661377,720.643616 323.890320,726.642883 325.750549,736.518494 
	C320.505432,734.826721 322.264313,731.490479 321.678589,728.676758 
z"/>
<path fill="#000000" opacity="1.000000" stroke="none" 
	d="
M697.484436,736.612122 
	C695.156616,736.153198 693.097900,735.986450 692.037964,733.553894 
	C694.683777,729.651062 699.524292,735.526672 702.070740,731.356750 
	C701.516418,728.855652 699.095215,729.065247 697.378967,728.460449 
	C694.832214,727.563049 692.796997,726.458252 692.729797,723.390015 
	C692.670044,720.662354 694.103333,718.946228 696.565918,718.204773 
	C699.344238,717.368164 702.179626,717.273071 704.699219,719.048340 
	C705.094910,719.327271 705.333130,720.269165 705.193237,720.781372 
	C704.853699,722.024719 703.791870,721.921875 702.749817,721.738647 
	C700.694397,721.377258 698.524292,720.357666 696.814819,722.569092 
	C696.944275,724.909790 698.967468,724.987061 700.397156,725.462219 
	C703.747314,726.575806 707.071350,727.813293 706.121155,732.185425 
	C705.179382,736.518555 701.636108,737.025635 697.484436,736.612122 
z"/>
<path fill="#000000" opacity="1.000000" stroke="none" 
	d="
M653.665466,724.183594 
	C654.091125,721.806396 652.538757,719.119080 655.587097,718.226379 
	C661.579041,716.471619 667.457520,717.574219 669.105774,721.193237 
	C671.280396,725.967773 670.617920,730.953430 669.429932,736.378601 
	C665.622131,734.628418 667.023254,731.816162 666.746765,729.655823 
	C666.331604,726.411743 667.934875,722.113525 662.715698,721.441589 
	C659.319519,721.004456 657.385620,724.237610 657.300476,729.874451 
	C657.250671,733.167297 657.250732,733.167297 655.529846,736.398315 
	C652.287537,732.621094 654.255310,728.380859 653.665466,724.183594 
z"/>
<path fill="#000000" opacity="1.000000" stroke="none" 
	d="
M626.191956,335.867920 
	C624.415283,343.081146 622.159058,345.172913 616.048340,345.667786 
	C621.551086,341.779999 623.775879,337.042419 621.912781,333.179962 
	C619.184998,327.525116 615.887024,327.096039 604.742432,330.946106 
	C605.616577,325.958832 608.930786,323.681458 615.073608,323.847046 
	C621.433533,324.018494 625.253418,328.001740 626.191956,335.867920 
z"/>
<path fill="#000000" opacity="1.000000" stroke="none" 
	d="
M624.558960,724.537231 
	C623.028076,727.910156 621.691284,730.958618 620.267151,733.965759 
	C619.375732,735.847900 617.371826,737.436829 616.088806,735.454712 
	C612.757874,730.308960 609.965332,724.768616 608.810486,717.270508 
	C614.775818,720.349487 614.034363,726.358032 617.445679,729.572205 
	C621.402222,726.614502 619.851379,719.597595 625.626892,717.660339 
	C627.246094,720.539612 625.162720,722.213318 624.558960,724.537231 
z"/>
<path fill="#000000" opacity="1.000000" stroke="none" 
	d="
M560.727600,731.667480 
	C560.254028,727.307007 562.319946,722.830872 557.620850,719.593201 
	C561.582336,717.381165 560.340881,710.951965 566.055054,710.722168 
	C567.750916,710.653992 569.818237,710.172180 570.582886,712.539490 
	C570.235840,714.474487 568.718262,714.171753 567.459595,714.279724 
	C565.975403,714.406921 564.426392,715.122131 564.847961,716.581909 
	C566.386475,721.910278 563.181396,726.963806 564.236572,732.255371 
	C564.500610,733.579590 565.097107,736.144775 562.544495,736.073547 
	C560.215515,736.008545 560.947510,733.641174 560.727600,731.667480 
z"/>
<path fill="#000000" opacity="1.000000" stroke="none" 
	d="
M682.192993,715.198425 
	C682.399292,718.518738 686.248047,716.969238 686.887390,719.308716 
	C680.187988,726.163818 680.355835,730.584167 687.645752,734.145081 
	C687.064331,736.981445 684.823242,736.334351 683.016113,736.225830 
	C680.752258,736.089905 679.298889,734.708252 678.946960,732.516296 
	C678.659851,730.727600 678.565430,728.857544 678.736694,727.056946 
	C679.020264,724.075623 678.293335,721.570984 674.795837,718.950928 
	C679.186646,719.389099 676.645264,711.974426 682.192993,715.198425 
z"/>
<path fill="#000000" opacity="1.000000" stroke="none" 
	d="
M488.843689,724.973572 
	C488.867767,720.829773 488.851044,717.177307 488.932098,713.527100 
	C488.958862,712.321716 489.376282,711.197266 490.841095,711.043945 
	C491.810089,710.942505 492.589813,711.558350 492.643341,712.393250 
	C493.145233,720.221924 493.598755,728.058838 492.120087,737.075806 
	C487.180786,733.201050 489.554993,728.938660 488.843689,724.973572 
z"/>
<path fill="#000000" opacity="1.000000" stroke="none" 
	d="
M473.005005,721.511475 
	C473.804932,719.226135 480.755646,716.734802 482.280273,717.872925 
	C483.704346,718.936035 483.487610,720.491882 481.994934,720.992432 
	C477.043610,722.653076 476.956726,726.536743 477.125793,730.654297 
	C477.146118,731.149353 477.175446,731.657288 477.092773,732.140869 
	C476.834351,733.651917 477.531952,736.052063 475.209930,736.065369 
	C472.637756,736.080200 473.045685,733.591187 472.998840,731.872559 
	C472.908691,728.566589 472.988190,725.256042 473.005005,721.511475 
z"/>
<path fill="#000000" opacity="1.000000" stroke="none" 
	d="
M501.650482,285.211273 
	C499.546997,290.873962 502.074982,295.033936 505.897339,299.124939 
	C500.387421,298.904083 497.201447,295.641327 496.802765,290.689972 
	C496.363129,285.230255 498.609406,281.804321 503.213104,280.972778 
	C504.114960,282.756775 502.388855,283.612793 501.650482,285.211273 
z"/>
<path fill="#000000" opacity="1.000000" stroke="none" 
	d="
M385.721008,729.856445 
	C385.882355,725.790466 385.295166,722.146790 386.154633,718.463867 
	C388.552002,717.863586 390.849731,719.054382 392.995972,717.891602 
	C393.802887,717.454407 395.001953,717.815369 395.360840,719.047729 
	C395.627472,719.963501 395.296265,720.844360 394.452759,721.102844 
	C388.943268,722.791443 389.279907,727.255554 389.243713,731.638733 
	C389.231079,733.169373 389.756317,735.059631 387.564575,735.917053 
	C384.890167,734.736633 386.062195,732.270691 385.721008,729.856445 
z"/>
<path fill="#000000" opacity="1.000000" stroke="none" 
	d="
M610.764587,537.105774 
	C614.158508,536.017578 617.077332,536.037598 620.187317,538.339417 
	C616.782715,540.841492 613.479980,540.144897 610.391296,539.567871 
	C608.401245,539.196106 609.405945,538.012451 610.764587,537.105774 
z"/>
<path fill="#000000" opacity="1.000000" stroke="none" 
	d="
M626.035156,549.520508 
	C625.695190,551.305847 625.635010,552.849121 623.527222,553.815247 
	C624.076172,550.121094 623.738098,546.722290 623.260071,542.653809 
	C626.593201,544.386353 625.949585,546.917480 626.035156,549.520508 
z"/>
</svg>